<svg width="354" height="354" viewBox="0 0 354 354" fill="none" xmlns="http://www.w3.org/2000/svg">
<g clip-path="url(#clip0_126_205)">
<path d="M104.592 104.592C64.9937 144.191 64.9937 208.625 104.592 248.223C144.191 287.822 208.625 287.822 248.223 248.223C287.822 208.625 287.822 144.191 248.223 104.592C208.625 64.9935 144.191 64.9935 104.592 104.592ZM209.554 154.311L187.456 176.408L209.554 198.505C211.019 199.97 211.842 201.957 211.842 204.029C211.842 206.101 211.019 208.088 209.554 209.553C208.088 211.018 206.101 211.842 204.029 211.842C201.957 211.842 199.97 211.018 198.505 209.553L176.408 187.456L154.311 209.553C152.846 211.018 150.859 211.842 148.787 211.842C146.715 211.842 144.727 211.018 143.262 209.553C141.797 208.088 140.974 206.101 140.974 204.029C140.974 201.957 141.797 199.97 143.262 198.505L165.359 176.408L143.262 154.311C141.797 152.846 140.974 150.858 140.974 148.786C140.974 146.714 141.797 144.727 143.262 143.262C144.727 141.797 146.715 140.974 148.787 140.974C150.859 140.974 152.846 141.797 154.311 143.262L176.408 165.359L198.505 143.262C199.97 141.797 201.957 140.974 204.029 140.974C206.101 140.974 208.088 141.797 209.554 143.262C211.019 144.727 211.842 146.714 211.842 148.786C211.842 150.858 211.019 152.846 209.554 154.311Z" fill="black"/>
</g>
<defs>
<clipPath id="clip0_126_205">
<rect width="250" height="250" fill="white" transform="translate(0 176.777) rotate(-45)"/>
</clipPath>
</defs>
</svg>
