<svg width="250" height="250" viewBox="0 0 250 250" fill="none" xmlns="http://www.w3.org/2000/svg">
<path d="M125 23.4375C68.9111 23.4375 23.4375 68.9111 23.4375 125C23.4375 181.089 68.9111 226.562 125 226.562C181.089 226.562 226.562 181.089 226.562 125C226.562 68.9111 181.089 23.4375 125 23.4375ZM81.0547 137.695C78.5438 137.695 76.0893 136.951 74.0016 135.556C71.9138 134.161 70.2866 132.178 69.3257 129.858C68.3649 127.539 68.1135 124.986 68.6033 122.523C69.0932 120.061 70.3023 117.799 72.0777 116.023C73.8532 114.248 76.1153 113.038 78.578 112.549C81.0406 112.059 83.5932 112.31 85.913 113.271C88.2327 114.232 90.2155 115.859 91.6105 117.947C93.0054 120.035 93.75 122.489 93.75 125C93.75 128.367 92.4125 131.596 90.0316 133.977C87.6508 136.358 84.4217 137.695 81.0547 137.695ZM125 137.695C122.489 137.695 120.035 136.951 117.947 135.556C115.859 134.161 114.232 132.178 113.271 129.858C112.31 127.539 112.059 124.986 112.549 122.523C113.038 120.061 114.248 117.799 116.023 116.023C117.799 114.248 120.061 113.038 122.523 112.549C124.986 112.059 127.539 112.31 129.858 113.271C132.178 114.232 134.161 115.859 135.556 117.947C136.951 120.035 137.695 122.489 137.695 125C137.695 128.367 136.358 131.596 133.977 133.977C131.596 136.358 128.367 137.695 125 137.695ZM168.945 137.695C166.434 137.695 163.98 136.951 161.892 135.556C159.804 134.161 158.177 132.178 157.216 129.858C156.255 127.539 156.004 124.986 156.494 122.523C156.984 120.061 158.193 117.799 159.968 116.023C161.744 114.248 164.006 113.038 166.469 112.549C168.931 112.059 171.484 112.31 173.804 113.271C176.123 114.232 178.106 115.859 179.501 117.947C180.896 120.035 181.641 122.489 181.641 125C181.641 128.367 180.303 131.596 177.922 133.977C175.541 136.358 172.312 137.695 168.945 137.695Z" fill="black"/>
</svg>
