<svg width="250" height="250" viewBox="0 0 250 250" fill="none" xmlns="http://www.w3.org/2000/svg">
<path d="M127.715 49.4531C126.988 48.7577 126.021 48.3696 125.015 48.3696C124.009 48.3696 123.041 48.7577 122.314 49.4531L32.4219 135.327C32.0401 135.692 31.7364 136.131 31.5291 136.617C31.3218 137.103 31.2152 137.626 31.2158 138.154L31.2012 218.75C31.2012 222.894 32.8474 226.868 35.7776 229.799C38.7079 232.729 42.6822 234.375 46.8262 234.375H93.75C95.822 234.375 97.8091 233.552 99.2743 232.087C100.739 230.622 101.563 228.634 101.563 226.562V160.156C101.563 159.12 101.974 158.127 102.707 157.394C103.439 156.662 104.433 156.25 105.469 156.25H144.531C145.567 156.25 146.561 156.662 147.293 157.394C148.026 158.127 148.438 159.12 148.438 160.156V226.562C148.438 228.634 149.261 230.622 150.726 232.087C152.191 233.552 154.178 234.375 156.25 234.375H203.154C207.298 234.375 211.273 232.729 214.203 229.799C217.133 226.868 218.779 222.894 218.779 218.75V138.154C218.78 137.626 218.673 137.103 218.466 136.617C218.259 136.131 217.955 135.692 217.573 135.327L127.715 49.4531Z" fill="#F5F5F5"/>
<path d="M239.702 119.214L203.179 84.2725V31.25C203.179 29.178 202.356 27.1909 200.891 25.7257C199.426 24.2606 197.438 23.4375 195.366 23.4375H171.929C169.857 23.4375 167.87 24.2606 166.405 25.7257C164.939 27.1909 164.116 29.178 164.116 31.25V46.875L135.835 19.834C133.189 17.1582 129.253 15.625 125 15.625C120.762 15.625 116.836 17.1582 114.19 19.8389L10.3322 119.204C7.29511 122.134 6.91425 126.953 9.67792 130.127C10.3719 130.928 11.2217 131.58 12.1755 132.042C13.1293 132.504 14.1672 132.768 15.226 132.816C16.2848 132.864 17.3424 132.697 18.3344 132.324C19.3264 131.95 20.2321 131.379 20.9963 130.645L122.315 33.8281C123.042 33.1327 124.009 32.7446 125.015 32.7446C126.021 32.7446 126.988 33.1327 127.715 33.8281L229.043 130.645C230.536 132.076 232.535 132.857 234.603 132.817C236.67 132.777 238.638 131.918 240.073 130.43C243.071 127.324 242.822 122.197 239.702 119.214Z" fill="#F5F5F5"/>
</svg>
