<svg width="250" height="250" viewBox="0 0 250 250" fill="none" xmlns="http://www.w3.org/2000/svg">
<path d="M125 15.625C64.5996 15.625 15.625 65.8691 15.625 127.783C15.625 177.344 46.9727 219.336 90.4297 234.18C91.0392 234.312 91.6614 234.378 92.2852 234.375C96.3379 234.375 97.9004 231.396 97.9004 228.809C97.9004 226.123 97.8027 219.092 97.7539 209.717C94.1359 210.565 90.4347 211.007 86.7188 211.035C65.6738 211.035 60.8887 194.678 60.8887 194.678C55.9082 181.738 48.7305 178.271 48.7305 178.271C39.209 171.582 48.6816 171.387 49.4141 171.387H49.4629C60.4492 172.363 66.2109 183.008 66.2109 183.008C71.6797 192.578 79.0039 195.264 85.5469 195.264C89.8732 195.177 94.1326 194.179 98.0469 192.334C99.0234 185.107 101.855 180.176 104.98 177.344C80.7129 174.512 55.1758 164.893 55.1758 121.924C55.1758 109.668 59.4238 99.6582 66.4062 91.8457C65.2832 89.0137 61.5234 77.5879 67.4805 62.1582C68.2795 61.967 69.1008 61.8849 69.9219 61.9141C73.877 61.9141 82.8125 63.4277 97.5586 73.6816C115.476 68.6685 134.426 68.6685 152.344 73.6816C167.09 63.4277 176.025 61.9141 179.98 61.9141C180.802 61.8849 181.623 61.967 182.422 62.1582C188.379 77.5879 184.619 89.0137 183.496 91.8457C190.479 99.707 194.727 109.717 194.727 121.924C194.727 164.99 169.141 174.463 144.775 177.246C148.682 180.713 152.197 187.549 152.197 197.998C152.197 212.988 152.051 225.098 152.051 228.76C152.051 231.396 153.564 234.375 157.617 234.375C158.273 234.378 158.928 234.312 159.57 234.18C203.076 219.336 234.375 177.295 234.375 127.783C234.375 65.8691 185.4 15.625 125 15.625Z" fill="#F5F5F5"/>
</svg>
