<svg width="250" height="250" viewBox="0 0 250 250" fill="none" xmlns="http://www.w3.org/2000/svg">
<path d="M170.571 33.8525C182.648 33.8886 194.219 38.7019 202.759 47.2413C211.298 55.7807 216.111 67.3522 216.147 79.4287V170.571C216.111 182.648 211.298 194.219 202.759 202.759C194.219 211.298 182.648 216.111 170.571 216.147H79.4287C67.3522 216.111 55.7807 211.298 47.2413 202.759C38.7019 194.219 33.8886 182.648 33.8525 170.571V79.4287C33.8886 67.3522 38.7019 55.7807 47.2413 47.2413C55.7807 38.7019 67.3522 33.8886 79.4287 33.8525H170.571ZM170.571 15.625H79.4287C44.3359 15.625 15.625 44.3359 15.625 79.4287V170.571C15.625 205.664 44.3359 234.375 79.4287 234.375H170.571C205.664 234.375 234.375 205.664 234.375 170.571V79.4287C234.375 44.3359 205.664 15.625 170.571 15.625Z" fill="url(#paint0_linear_125_191)"/>
<path d="M184.243 79.4287C181.539 79.4287 178.896 78.6269 176.648 77.1246C174.399 75.6223 172.647 73.487 171.612 70.9888C170.577 68.4906 170.306 65.7417 170.834 63.0896C171.362 60.4375 172.664 58.0014 174.576 56.0894C176.488 54.1773 178.924 52.8752 181.576 52.3477C184.228 51.8201 186.977 52.0909 189.475 53.1257C191.973 54.1605 194.109 55.9128 195.611 58.1612C197.113 60.4095 197.915 63.0528 197.915 65.7568C197.919 67.5533 197.568 69.3329 196.882 70.9934C196.196 72.6539 195.19 74.1626 193.919 75.4329C192.649 76.7033 191.14 77.7102 189.48 78.3959C187.819 79.0816 186.04 79.4326 184.243 79.4287ZM125 88.54C132.211 88.54 139.26 90.6784 145.256 94.6847C151.252 98.6909 155.925 104.385 158.685 111.047C161.444 117.71 162.166 125.04 160.759 132.113C159.353 139.186 155.88 145.682 150.781 150.781C145.682 155.88 139.186 159.353 132.113 160.759C125.04 162.166 117.71 161.444 111.047 158.685C104.385 155.925 98.6909 151.252 94.6847 145.256C90.6784 139.26 88.5401 132.211 88.5401 125C88.5504 115.333 92.395 106.066 99.2304 99.2303C106.066 92.395 115.333 88.5504 125 88.54ZM125 70.3125C114.184 70.3125 103.611 73.5199 94.6173 79.529C85.624 85.5381 78.6145 94.0792 74.4754 104.072C70.3362 114.065 69.2532 125.061 71.3633 135.669C73.4735 146.277 78.6819 156.022 86.3301 163.67C93.9783 171.318 103.723 176.527 114.331 178.637C124.939 180.747 135.935 179.664 145.928 175.525C155.921 171.385 164.462 164.376 170.471 155.383C176.48 146.389 179.688 135.816 179.688 125C179.688 110.496 173.926 96.586 163.67 86.3301C153.414 76.0742 139.504 70.3125 125 70.3125Z" fill="url(#paint1_linear_125_191)"/>
<defs>
<linearGradient id="paint0_linear_125_191" x1="125" y1="15.625" x2="125" y2="234.375" gradientUnits="userSpaceOnUse">
<stop offset="0.1" stop-color="#5B51D8"/>
<stop offset="0.5" stop-color="#833AB4"/>
<stop offset="1" stop-color="#E1306C"/>
</linearGradient>
<linearGradient id="paint1_linear_125_191" x1="134.114" y1="52.085" x2="134.114" y2="179.688" gradientUnits="userSpaceOnUse">
<stop offset="0.1" stop-color="#5B51D8"/>
<stop offset="0.5" stop-color="#833AB4"/>
<stop offset="1" stop-color="#E1306C"/>
</linearGradient>
</defs>
</svg>

