<svg width="250" height="250" viewBox="0 0 250 250" fill="none" xmlns="http://www.w3.org/2000/svg">
<path d="M216.88 15.625H34.3164C24.3408 15.625 15.625 22.8027 15.625 32.6611V215.63C15.625 225.542 24.3408 234.375 34.3164 234.375H216.826C226.855 234.375 234.375 225.483 234.375 215.63V32.6611C234.434 22.8027 226.855 15.625 216.88 15.625ZM83.4326 197.964H52.0947V100.527H83.4326V197.964ZM68.8477 85.7129H68.623C58.5937 85.7129 52.0996 78.2471 52.0996 68.9014C52.0996 59.3848 58.7646 52.0947 69.0186 52.0947C79.2725 52.0947 85.5469 59.3311 85.7715 68.9014C85.7666 78.2471 79.2725 85.7129 68.8477 85.7129ZM197.964 197.964H166.626V144.688C166.626 131.924 162.065 123.203 150.728 123.203C142.065 123.203 136.938 129.063 134.658 134.771C133.804 136.821 133.574 139.614 133.574 142.466V197.964H102.236V100.527H133.574V114.087C138.135 107.593 145.259 98.2471 161.836 98.2471C182.407 98.2471 197.969 111.807 197.969 141.04L197.964 197.964Z" fill="#0072B1"/>
</svg>
